<?xml version="1.0" encoding="UTF-8"?>
<svg width="79px" height="82px" viewBox="0 0 79 82" version="1.1" xmlns="http://www.w3.org/2000/svg" xmlns:xlink="http://www.w3.org/1999/xlink">
    <!-- Generator: Sketch 59 (86127) - https://sketch.com -->
    <title>资源 2</title>
    <desc>Created with Sketch.</desc>
    <defs>
        <linearGradient x1="0%" y1="50%" x2="100%" y2="50%" id="linearGradient-1">
            <stop stop-color="#FFD112" offset="0%"></stop>
            <stop stop-color="#FFF9F0" offset="82%"></stop>
            <stop stop-color="#FFE47C" offset="91%"></stop>
            <stop stop-color="#FFD630" offset="97%"></stop>
            <stop stop-color="#FFD112" offset="100%"></stop>
        </linearGradient>
        <linearGradient x1="-0.012117003%" y1="50.0166122%" x2="100.111262%" y2="50.0166122%" id="linearGradient-2">
            <stop stop-color="#FFD112" offset="0%"></stop>
            <stop stop-color="#FFD630" offset="3%"></stop>
            <stop stop-color="#FFE47C" offset="9%"></stop>
            <stop stop-color="#FFF9F0" offset="18%"></stop>
            <stop stop-color="#FFD112" offset="100%"></stop>
        </linearGradient>
        <linearGradient x1="0%" y1="49.9969757%" x2="100%" y2="49.9969757%" id="linearGradient-3">
            <stop stop-color="#FDD324" offset="0%"></stop>
            <stop stop-color="#FEE787" offset="24%"></stop>
            <stop stop-color="#FFFFFF" offset="52%"></stop>
            <stop stop-color="#FEE88E" offset="75%"></stop>
            <stop stop-color="#FDD942" offset="92%"></stop>
            <stop stop-color="#FDD324" offset="100%"></stop>
        </linearGradient>
        <path d="M27.8784345,67.5673242 L29.2371671,67.5673242 L33.527293,74.4477148 L33.527293,67.5673242 L34.6200609,67.5673242 L34.6200609,76.0608484 L33.3307104,76.0608484 L28.9769842,69.1862397 L28.9769842,76.0608484 L27.8784345,76.0608484 L27.8784345,67.5673242 Z M40.0954642,67.3360506 C41.5948957,67.3360506 42.704998,67.8178658 43.4258045,68.7815108 C43.9885731,69.5331539 44.2699532,70.4948571 44.2699532,71.6666494 C44.2699532,72.9348061 43.9481006,73.9890179 43.3043858,74.8293163 C42.5488882,75.8160887 41.4715493,76.3094676 40.0723368,76.3094676 C38.7656342,76.3094676 37.7384041,75.8777611 36.9906156,75.0143352 C36.3237733,74.181746 35.9903572,73.1294615 35.9903572,71.8574501 C35.9903572,70.7087853 36.2755918,69.7258822 36.8460696,68.9087113 C37.5784398,67.8602656 38.6615605,67.3360506 40.0954642,67.3360506 Z M40.211101,75.2802999 C41.2248555,75.2802999 41.9581783,74.9170112 42.4110914,74.1904229 C42.8640045,73.4638346 43.0904577,72.628367 43.0904577,71.6839949 C43.0904577,70.6856587 42.8293138,69.8819909 42.3070183,69.2729673 C41.7847227,68.6639437 41.0706725,68.3594364 40.1648462,68.3594364 C39.286002,68.3594364 38.5690609,68.6610528 38.0140015,69.2642945 C37.458942,69.8675363 37.1814164,70.7569672 37.1814164,71.9326141 C37.1814164,72.8731315 37.4194331,73.6661994 37.8954737,74.3118416 C38.3715143,74.9574837 39.1433824,75.2802999 40.211101,75.2802999 Z M45.8715231,70.1980618 L45.8715231,69.4001678 C46.6231662,69.3269308 47.1473812,69.2045497 47.4441838,69.0330209 C47.7409865,68.8614921 47.9626215,68.4558036 48.1090955,67.8159434 L48.9301169,67.8159434 L48.9301169,76.0608484 L47.8200035,76.0608484 L47.8200035,70.1980618 L45.8715231,70.1980618 Z" id="path-4"></path>
    </defs>
    <g id="UI页面" stroke="none" stroke-width="1" fill="none" fill-rule="evenodd">
        <g id="3-排行榜" transform="translate(-148.000000, -440.000000)" fill-rule="nonzero">
            <g id="编组-22" transform="translate(24.000000, 432.000000)">
                <g id="资源-2" transform="translate(124.000000, 8.000000)">
                    <path d="M39.4571488,8.89979542 C54.3994699,8.92206073 66.8962515,20.2582742 68.3701619,35.1277409 C69.8440724,49.9972077 59.8159728,63.5661614 45.1687823,66.5213708 C30.5215917,69.4765803 16.0168191,60.857366 11.6100072,46.5796399 C7.2031953,32.3019138 14.3269106,17.0070792 28.0916968,11.1929485 C31.6872556,9.67150538 35.5529506,8.89156479 39.4571488,8.89979542 M39.4571488,4.50486787 C20.9014882,4.50486787 5.85962448,19.5467316 5.85962448,38.1023922 C5.85962448,56.6580529 20.9014882,71.6999166 39.4571488,71.6999166 C58.0128095,71.6999166 73.0546732,56.6569541 73.0546732,38.1023922 C73.0546732,19.5478303 58.0139082,4.50486787 39.4571488,4.50486787 Z" id="形状" fill="url(#linearGradient-1)"></path>
                    <path d="M39.4571488,4.50486787 C58.0139082,4.50486787 73.0546732,19.5467316 73.0546732,38.1023922 C73.0546732,56.6580529 58.0139082,71.6999166 39.4571488,71.6999166 C20.9003894,71.6999166 5.85962448,56.6569541 5.85962448,38.1023922 C5.85962448,19.5478303 20.9014882,4.50486787 39.4571488,4.50486787 M39.4571488,0.109813217 C21.386483,0.120216661 5.82245393,12.8546466 2.23427307,30.5654915 C-1.3539078,48.2763364 8.02632219,66.0644222 24.6679972,73.1074131 C43.9844319,81.2014342 66.2082923,72.1408555 74.3593843,52.848434 C82.5104763,33.5560125 73.5156389,11.305463 54.2473992,3.09737135 C49.5684609,1.11680605 44.537997,0.100697928 39.4571488,0.109813217 Z" id="形状" fill="url(#linearGradient-2)"></path>
                    <polygon id="路径" fill="#E8C020" points="49.6150765 65.8391933 78.9142976 65.8391933 72.1756745 73.6040473 78.9142976 81.3689013 49.6150765 81.3689013"></polygon>
                    <polygon id="路径" fill="#E8C020" points="29.3003199 65.8391933 0 65.8391933 6.73862309 73.6040473 0 81.3689013 29.3003199 81.3689013"></polygon>
                    <rect id="矩形" fill="url(#linearGradient-3)" x="14.6496106" y="62.0309318" width="49.6150765" height="18.165605"></rect>
                    <g id="NO1">
                        <use fill="#000000" xlink:href="#path-4"></use>
                        <use fill="#C9901B" xlink:href="#path-4"></use>
                    </g>
                </g>
            </g>
        </g>
    </g>
</svg>