<?xml version="1.0" encoding="UTF-8"?>
<svg width="80px" height="83px" viewBox="0 0 80 83" version="1.1" xmlns="http://www.w3.org/2000/svg" xmlns:xlink="http://www.w3.org/1999/xlink">
    <!-- Generator: Sketch 59 (86127) - https://sketch.com -->
    <title>资源 3</title>
    <desc>Created with Sketch.</desc>
    <defs>
        <linearGradient x1="0%" y1="50%" x2="100%" y2="50%" id="linearGradient-1">
            <stop stop-color="#CCCCCC" offset="0%"></stop>
            <stop stop-color="#F0F0F0" offset="82%"></stop>
            <stop stop-color="#EAEAEA" offset="85%"></stop>
            <stop stop-color="#CCCCCC" offset="100%"></stop>
        </linearGradient>
        <linearGradient x1="-0.012117003%" y1="50.0166122%" x2="100.111262%" y2="50.0166122%" id="linearGradient-2">
            <stop stop-color="#CCCCCC" offset="0%"></stop>
            <stop stop-color="#EAEAEA" offset="15%"></stop>
            <stop stop-color="#F0F0F0" offset="18%"></stop>
            <stop stop-color="#CCCCCC" offset="100%"></stop>
        </linearGradient>
        <linearGradient x1="0%" y1="49.9969757%" x2="100%" y2="49.9969757%" id="linearGradient-3">
            <stop stop-color="#DBDBDB" offset="0%"></stop>
            <stop stop-color="#FFFFFF" offset="52%"></stop>
            <stop stop-color="#F9F9F9" offset="60%"></stop>
            <stop stop-color="#DBDBDB" offset="100%"></stop>
        </linearGradient>
        <path d="M27.8784345,67.5112881 L29.2371671,67.5112881 L33.527293,74.3916786 L33.527293,67.5112881 L34.6200609,67.5112881 L34.6200609,76.0048122 L33.3307104,76.0048122 L28.9769842,69.1302035 L28.9769842,76.0048122 L27.8784345,76.0048122 L27.8784345,67.5112881 Z M40.0954642,67.2800144 C41.5948957,67.2800144 42.704998,67.7618297 43.4258045,68.7254746 C43.9885731,69.4771177 44.2699532,70.4388209 44.2699532,71.6106132 C44.2699532,72.87877 43.9481006,73.9329817 43.3043858,74.7732801 C42.5488882,75.7600526 41.4715493,76.2534314 40.0723368,76.2534314 C38.7656342,76.2534314 37.7384041,75.8217249 36.9906156,74.958299 C36.3237733,74.1257098 35.9903572,73.0734253 35.9903572,71.801414 C35.9903572,70.6527492 36.2755918,69.6698461 36.8460696,68.8526751 C37.5784398,67.8042294 38.6615605,67.2800144 40.0954642,67.2800144 Z M40.211101,75.2242637 C41.2248555,75.2242637 41.9581783,74.860975 42.4110914,74.1343867 C42.8640045,73.4077984 43.0904577,72.5723308 43.0904577,71.6279587 C43.0904577,70.6296226 42.8293138,69.8259547 42.3070183,69.2169311 C41.7847227,68.6079075 41.0706725,68.3034003 40.1648462,68.3034003 C39.286002,68.3034003 38.5690609,68.6050166 38.0140015,69.2082583 C37.458942,69.8115001 37.1814164,70.700931 37.1814164,71.8765779 C37.1814164,72.8170954 37.4194331,73.6101633 37.8954737,74.2558054 C38.3715143,74.9014475 39.1433824,75.2242637 40.211101,75.2242637 Z M45.1083201,76.0048122 C45.1468659,75.291715 45.2943014,74.6711369 45.550631,74.1430595 C45.8069605,73.6149821 46.3070848,73.1350941 47.0510187,72.7033811 L48.1611321,72.0615968 C48.6583729,71.7725033 49.0072071,71.5258139 49.2076453,71.3215212 C49.5237208,71.001591 49.6817562,70.6354115 49.6817562,70.2229714 C49.6817562,69.7411489 49.5372117,69.3585876 49.2481182,69.075276 C48.9590247,68.7919644 48.5735725,68.6503107 48.09175,68.6503107 C47.3786527,68.6503107 46.8852739,68.9201272 46.6115988,69.4597684 C46.4651247,69.7488619 46.3841798,70.1497322 46.3687614,70.6623913 L45.3106846,70.6623913 C45.3222483,69.9415849 45.4552293,69.3537703 45.7096316,68.8989299 C46.1606174,68.0971773 46.9565762,67.696307 48.0975319,67.696307 C49.0457585,67.696307 49.7386088,67.9526327 50.1761036,68.4652918 C50.6135984,68.9779509 50.8323426,69.5484202 50.8323426,70.1767167 C50.8323426,70.8397044 50.599144,71.4063192 50.1327398,71.8765779 C49.8629192,72.1502531 49.3791767,72.4817419 48.6814978,72.8710545 L47.8893856,73.3104744 C47.5116368,73.5186217 47.2148386,73.7171296 46.9989821,73.906004 C46.6135241,74.2413525 46.3706892,74.6133138 46.2704702,75.0218993 L50.7918697,75.0218993 L50.7918697,76.0048122 L45.1083201,76.0048122 Z" id="path-4"></path>
    </defs>
    <g id="UI页面" stroke="none" stroke-width="1" fill="none" fill-rule="evenodd">
        <g id="3-排行榜" transform="translate(-38.000000, -454.000000)" fill-rule="nonzero">
            <g id="编组-22" transform="translate(24.000000, 432.000000)">
                <g id="编组-19" transform="translate(14.000000, 22.000000)">
                    <g id="资源-3" transform="translate(0.350000, 0.850000)">
                        <path d="M39.4571488,8.89979542 C54.3994699,8.92206073 66.8962515,20.2582742 68.3701619,35.1277409 C69.8440724,49.9972077 59.8159728,63.5661614 45.1687823,66.5213708 C30.5215917,69.4765803 16.0168191,60.857366 11.6100072,46.5796399 C7.2031953,32.3019138 14.3269106,17.0070792 28.0916968,11.1929485 C31.6872556,9.67150538 35.5529506,8.89156479 39.4571488,8.89979542 M39.4571488,4.50486787 C20.9014882,4.50486787 5.85962448,19.5467316 5.85962448,38.1023922 C5.85962448,56.6580529 20.9014882,71.6999166 39.4571488,71.6999166 C58.0128095,71.6999166 73.0546732,56.6569541 73.0546732,38.1023922 C73.0546732,19.5478303 58.0139082,4.50486787 39.4571488,4.50486787 Z" id="形状" fill="url(#linearGradient-1)"></path>
                        <path d="M39.4571488,4.50486787 C58.0139082,4.50486787 73.0546732,19.5467316 73.0546732,38.1023922 C73.0546732,56.6580529 58.0139082,71.6999166 39.4571488,71.6999166 C20.9003894,71.6999166 5.85962448,56.6569541 5.85962448,38.1023922 C5.85962448,19.5478303 20.9014882,4.50486787 39.4571488,4.50486787 M39.4571488,0.109813217 C21.386483,0.120216661 5.82245393,12.8546466 2.23427307,30.5654915 C-1.3539078,48.2763364 8.02632219,66.0644222 24.6679972,73.1074131 C43.9844319,81.2014342 66.2082923,72.1408555 74.3593843,52.848434 C82.5104763,33.5560125 73.5156389,11.305463 54.2473992,3.09737135 C49.5684609,1.11680605 44.537997,0.100697928 39.4571488,0.109813217 Z" id="形状" fill="url(#linearGradient-2)"></path>
                        <polygon id="路径" fill="#C2C2C2" points="49.6150765 65.8391933 78.9142976 65.8391933 72.1756745 73.6040473 78.9142976 81.3689013 49.6150765 81.3689013"></polygon>
                        <polygon id="路径" fill="#C2C2C2" points="29.3003199 65.8391933 0 65.8391933 6.73862309 73.6040473 0 81.3689013 29.3003199 81.3689013"></polygon>
                        <rect id="矩形" fill="url(#linearGradient-3)" x="14.6496106" y="62.0309318" width="49.6150765" height="18.165605"></rect>
                        <g id="NO2">
                            <use fill="#000000" xlink:href="#path-4"></use>
                            <use fill="#6D6968" xlink:href="#path-4"></use>
                        </g>
                    </g>
                </g>
            </g>
        </g>
    </g>
</svg>