<?xml version="1.0" encoding="UTF-8"?>
<svg width="79px" height="82px" viewBox="0 0 79 82" version="1.1" xmlns="http://www.w3.org/2000/svg" xmlns:xlink="http://www.w3.org/1999/xlink">
    <!-- Generator: Sketch 59 (86127) - https://sketch.com -->
    <title>资源 4</title>
    <desc>Created with Sketch.</desc>
    <defs>
        <linearGradient x1="0%" y1="50%" x2="100%" y2="50%" id="linearGradient-1">
            <stop stop-color="#D69320" offset="0%"></stop>
            <stop stop-color="#FFF9F0" offset="82%"></stop>
            <stop stop-color="#EBC78A" offset="90%"></stop>
            <stop stop-color="#DCA23E" offset="97%"></stop>
            <stop stop-color="#D69320" offset="100%"></stop>
        </linearGradient>
        <linearGradient x1="-0.012117003%" y1="50.0166122%" x2="100.111262%" y2="50.0166122%" id="linearGradient-2">
            <stop stop-color="#D69320" offset="0%"></stop>
            <stop stop-color="#DCA23E" offset="3%"></stop>
            <stop stop-color="#EBC78A" offset="10%"></stop>
            <stop stop-color="#FFF9F0" offset="18%"></stop>
            <stop stop-color="#D69320" offset="100%"></stop>
        </linearGradient>
        <linearGradient x1="0%" y1="49.9969757%" x2="100%" y2="49.9969757%" id="linearGradient-3">
            <stop stop-color="#E89F21" offset="0%"></stop>
            <stop stop-color="#F2CA84" offset="24%"></stop>
            <stop stop-color="#FFFFFF" offset="52%"></stop>
            <stop stop-color="#F3CD8B" offset="76%"></stop>
            <stop stop-color="#EBAC3F" offset="92%"></stop>
            <stop stop-color="#E89F21" offset="100%"></stop>
        </linearGradient>
        <path d="M29.2079199,67.5112881 L30.5666525,67.5112881 L34.8567784,74.3916786 L34.8567784,67.5112881 L35.9495463,67.5112881 L35.9495463,76.0048122 L34.6601958,76.0048122 L30.3064696,69.1302035 L30.3064696,76.0048122 L29.2079199,76.0048122 L29.2079199,67.5112881 Z M41.4249495,67.2800144 C42.9243811,67.2800144 44.0344834,67.7618297 44.7552899,68.7254746 C45.3180585,69.4771177 45.5994386,70.4388209 45.5994386,71.6106132 C45.5994386,72.87877 45.277586,73.9329817 44.6338712,74.7732801 C43.8783736,75.7600526 42.8010347,76.2534314 41.4018222,76.2534314 C40.0951196,76.2534314 39.0678895,75.8217249 38.320101,74.958299 C37.6532587,74.1257098 37.3198426,73.0734253 37.3198426,71.801414 C37.3198426,70.6527492 37.6050772,69.6698461 38.175555,68.8526751 C38.9079252,67.8042294 39.9910459,67.2800144 41.4249495,67.2800144 Z M41.5405864,75.2242637 C42.5543409,75.2242637 43.2876637,74.860975 43.7405768,74.1343867 C44.1934899,73.4077984 44.4199431,72.5723308 44.4199431,71.6279587 C44.4199431,70.6296226 44.1587992,69.8259547 43.6365037,69.2169311 C43.1142081,68.6079075 42.4001579,68.3034003 41.4943316,68.3034003 C40.6154874,68.3034003 39.8985463,68.6050166 39.3434869,69.2082583 C38.7884274,69.8115001 38.5109018,70.700931 38.5109018,71.8765779 C38.5109018,72.8170954 38.7489185,73.6101633 39.2249591,74.2558054 C39.7009997,74.9014475 40.4728678,75.2242637 41.5405864,75.2242637 Z M49.1437071,76.230304 C48.1646438,76.230304 47.4544481,75.9614511 47.0130987,75.4237372 C46.5717493,74.8860234 46.3510779,74.2317182 46.3510779,73.4608023 L47.438064,73.4608023 C47.484319,73.9965889 47.5845365,74.3858956 47.7387197,74.6287341 C48.0085403,75.0643016 48.4961374,75.2820821 49.2015255,75.2820821 C49.7488758,75.2820821 50.1882913,75.1356103 50.5197852,74.8426622 C50.851279,74.5497142 51.0170235,74.171971 51.0170235,73.7094214 C51.0170235,73.1389436 50.8426064,72.7400006 50.4937669,72.5125804 C50.1449274,72.2851602 49.6602213,72.1714518 49.0396339,72.1714518 C48.9702515,72.1714518 48.8999065,72.1724154 48.8285967,72.1743427 C48.757287,72.17627 48.6850147,72.1791609 48.6117777,72.1830155 L48.6117777,71.2637028 L48.6894714,71.2716528 C48.7639125,71.2788801 48.8285965,71.2839392 48.8835242,71.2868301 C48.9567612,71.2906847 49.0357789,71.292612 49.1205797,71.292612 C49.5098923,71.292612 49.8298176,71.2309396 50.0803653,71.1075931 C50.5197874,70.8917366 50.7394951,70.5062844 50.7394951,69.9512249 C50.7394951,69.5387849 50.5930233,69.2207868 50.3000752,68.9972212 C50.0071272,68.7736555 49.666002,68.6618744 49.2766894,68.6618744 C48.582865,68.6618744 48.102977,68.8931457 47.837011,69.3556953 C47.690537,69.6100976 47.6076648,69.9724226 47.5883919,70.4426814 L46.5592242,70.4426814 C46.5592242,69.8479748 46.6739159,69.3392955 46.9033026,68.9166296 L46.929262,68.8700207 C47.3532658,68.0991047 48.0991158,67.7136525 49.1668344,67.7136525 C50.0109874,67.7136525 50.6643289,67.9015604 51.1268785,68.277382 C51.589428,68.6532035 51.8206994,69.1976547 51.8206994,69.910752 C51.8206994,70.4195565 51.6838638,70.8319904 51.4101887,71.1480659 C51.2405871,71.3446495 51.0208794,71.4988304 50.7510588,71.6106132 C51.1866263,71.7301052 51.5267879,71.9604129 51.7715537,72.3015432 C52.0163195,72.6426735 52.1387006,73.0599255 52.1387006,73.5533117 C52.1387006,74.3435006 51.8785204,74.9872058 51.3581521,75.4844466 C50.8377838,75.9816874 50.0996428,76.230304 49.1437071,76.230304 Z" id="path-4"></path>
    </defs>
    <g id="UI页面" stroke="none" stroke-width="1" fill="none" fill-rule="evenodd">
        <g id="3-排行榜" transform="translate(-256.000000, -455.000000)" fill-rule="nonzero">
            <g id="编组-22" transform="translate(24.000000, 432.000000)">
                <g id="编组-18" transform="translate(231.850000, 22.000000)">
                    <g id="资源-4" transform="translate(0.150000, 0.950000)">
                        <path d="M39.4571488,8.89979542 C54.3994699,8.92206073 66.8962515,20.2582742 68.3701619,35.1277409 C69.8440724,49.9972077 59.8159728,63.5661614 45.1687823,66.5213708 C30.5215917,69.4765803 16.0168191,60.857366 11.6100072,46.5796399 C7.2031953,32.3019138 14.3269106,17.0070792 28.0916968,11.1929485 C31.6872556,9.67150538 35.5529506,8.89156479 39.4571488,8.89979542 M39.4571488,4.50486787 C20.9014882,4.50486787 5.85962448,19.5467316 5.85962448,38.1023922 C5.85962448,56.6580529 20.9014882,71.6999166 39.4571488,71.6999166 C58.0128095,71.6999166 73.0546732,56.6569541 73.0546732,38.1023922 C73.0546732,19.5478303 58.0139082,4.50486787 39.4571488,4.50486787 Z" id="形状" fill="url(#linearGradient-1)"></path>
                        <path d="M39.4571488,4.50486787 C58.0139082,4.50486787 73.0546732,19.5467316 73.0546732,38.1023922 C73.0546732,56.6580529 58.0139082,71.6999166 39.4571488,71.6999166 C20.9003894,71.6999166 5.85962448,56.6569541 5.85962448,38.1023922 C5.85962448,19.5478303 20.9014882,4.50486787 39.4571488,4.50486787 M39.4571488,0.109813217 C21.386483,0.120216661 5.82245393,12.8546466 2.23427307,30.5654915 C-1.3539078,48.2763364 8.02632219,66.0644222 24.6679972,73.1074131 C43.9844319,81.2014342 66.2082923,72.1408555 74.3593843,52.848434 C82.5104763,33.5560125 73.5156389,11.305463 54.2473992,3.09737135 C49.5684609,1.11680605 44.537997,0.100697928 39.4571488,0.109813217 Z" id="形状" fill="url(#linearGradient-2)"></path>
                        <polygon id="路径" fill="#C7881B" points="49.6150765 65.8391933 78.9142976 65.8391933 72.1756745 73.6040473 78.9142976 81.3689013 49.6150765 81.3689013"></polygon>
                        <polygon id="路径" fill="#C7881B" points="29.3003199 65.8391933 0 65.8391933 6.73862309 73.6040473 0 81.3689013 29.3003199 81.3689013"></polygon>
                        <rect id="矩形" fill="url(#linearGradient-3)" x="14.6496106" y="62.0309318" width="49.6150765" height="18.165605"></rect>
                        <g id="NO3">
                            <use fill="#000000" xlink:href="#path-4"></use>
                            <use fill="#C05E2B" xlink:href="#path-4"></use>
                        </g>
                    </g>
                </g>
            </g>
        </g>
    </g>
</svg>