<?xml version="1.0" encoding="UTF-8"?>
<svg width="300px" height="429px" viewBox="0 0 300 429" version="1.1" xmlns="http://www.w3.org/2000/svg" xmlns:xlink="http://www.w3.org/1999/xlink">
    <!-- Generator: Sketch 59 (86127) - https://sketch.com -->
    <title>编组 59</title>
    <desc>Created with Sketch.</desc>
    <defs>
        <path d="M0.8614,5.40569826 L0.8614,3.23116987 L1.48910072,3.19795824 C2.16910844,3.15533677 2.66603282,3.09915417 2.97988385,3.0294095 C3.6225312,2.88742927 4.1456084,2.60347308 4.54913115,2.17753239 C4.82561896,1.8860993 5.03484984,1.49752766 5.17683007,1.01180583 C5.25902915,0.720372732 5.30012807,0.50366932 5.30012807,0.361689093 L7.95663957,0.361689093 L7.95663957,16.6146075 L4.68363806,16.6146075 L4.68363806,5.40569826 L0.8614,5.40569826 Z M16.0158453,8.64507304 C16.0158453,10.5132339 16.1690322,11.9423556 16.4754106,12.9324808 C16.781789,13.9226061 17.4094816,14.4176613 18.3585074,14.4176613 C19.3075331,14.4176613 19.9296213,13.9226061 20.2247908,12.9324808 C20.5199602,11.9423556 20.6675427,10.5132339 20.6675427,8.64507304 C20.6675427,6.68724043 20.5199602,5.23756933 20.2247908,4.29601625 C19.9296213,3.35446316 19.3075331,2.88369368 18.3585074,2.88369368 C17.4094816,2.88369368 16.781789,3.35446316 16.4754106,4.29601625 C16.1690322,5.23756933 16.0158453,6.68724043 16.0158453,8.64507304 Z M18.3585074,0.2496 C20.4284296,0.2496 21.8799689,0.978171817 22.7131686,2.43533731 C23.5463684,3.8925028 23.962962,5.96239401 23.962962,8.64507304 C23.962962,11.3277521 23.5463684,13.393907 22.7131686,14.8435999 C21.8799689,16.2932927 20.4284296,17.0181283 18.3585074,17.0181283 C16.2885851,17.0181283 14.8370459,16.2932927 14.0038461,14.8435999 C13.1706464,13.393907 12.7540527,11.3277521 12.7540527,8.64507304 C12.7540527,5.96239401 13.1706464,3.8925028 14.0038461,2.43533731 C14.8370459,0.978171817 16.2885851,0.2496 18.3585074,0.2496 Z" id="path-1"></path>
    </defs>
    <g id="UI页面" stroke="none" stroke-width="1" fill="none" fill-rule="evenodd">
        <g id="首页按钮-每日任务" transform="translate(-37.000000, -126.000000)">
            <g id="编组-60" transform="translate(37.000000, 126.000000)">
                <g id="编组-59">
                    <rect id="矩形_1_拷贝_2" fill="#F58748" fill-rule="nonzero" x="0" y="72" width="300" height="356.4" rx="12"></rect>
                    <rect id="矩形_1_拷贝_3" fill="#F4EAC7" fill-rule="nonzero" x="6" y="78.6" width="288.6" height="343.2" rx="12"></rect>
                    <g id="组_6" transform="translate(60.000000, 0.000000)">
                        <g id="小挂历" transform="translate(60.000000, 0.000000)" fill-rule="nonzero">
                            <rect id="矩形_1" fill="#E98C45" x="0" y="2.85" width="57.6" height="67.95" rx="6"></rect>
                            <rect id="矩形_1_拷贝" fill="#FFFFFF" x="6.1314" y="6.1314" width="45.3372" height="58.5372" rx="6"></rect>
                            <rect id="矩形_3" fill="#DE3B2E" x="3.7686" y="5.1936" width="52.4064" height="17.4564"></rect>
                            <rect id="矩形_4" fill="#000000" x="24.5436" y="11.7936" width="9.45" height="1.425"></rect>
                            <rect id="矩形_4_拷贝" fill="#000000" x="24.5436" y="14.1564" width="9.45" height="1.425"></rect>
                            <rect id="矩形_4_拷贝_2" fill="#000000" x="24.5436" y="16.5186" width="9.45" height="1.425"></rect>
                            <g id="挂钩" transform="translate(9.600000, 0.000000)">
                                <g id="组_2" fill="#FFFFFF">
                                    <circle id="椭圆_1" cx="2.1378" cy="8.0904" r="1.8186"></circle>
                                    <rect id="矩形_2" x="1.2372" y="0" width="1.7064" height="8.6436" rx="0.513"></rect>
                                </g>
                                <g id="组_1" transform="translate(6.400000, 0.000000)">
                                    <circle id="椭圆_1_拷贝" fill="#FFFFFF" cx="29.8436" cy="8.0904" r="1.8378"></circle>
                                    <g id="_10" transform="translate(0.138600, 30.750400)">
                                        <g id="10">
                                            <use fill="#000000" xlink:href="#path-1"></use>
                                            <use fill="#DE3B2E" xlink:href="#path-1"></use>
                                        </g>
                                    </g>
                                    <rect id="矩形_2_拷贝" fill="#FFFFFF" x="28.925" y="0" width="1.7064" height="8.6436" rx="0.513"></rect>
                                </g>
                            </g>
                        </g>
                        <g id="组_9" transform="translate(0.000000, 4.200000)" fill="#FDDC1B">
                            <polyline id="_5_Point_Star_1" points="149.7 0 154.5444 8.673 164.4 10.5426 157.539 17.7714 158.784 27.6 149.7 23.394 140.616 27.6 141.861 17.772 135 10.5426 144.8532 8.6742 149.7 0"></polyline>
                            <polyline id="_5_Point_Star_1_拷贝" points="46.2 16.8 50.748 24.72 60 26.4258 53.5608 33.0258 54.7278 42 46.2 38.16 37.6722 42 38.841 33.027 32.4 26.4258 41.652 24.72 46.2 16.8"></polyline>
                            <polyline id="_5_Point_Star_1_拷贝_2" points="10.5 48 13.9602 54.222 21 55.563 16.1004 60.7488 16.9884 67.8 10.5 64.782 4.0116 67.8 4.9008 60.7494 0 55.563 7.038 54.2226 10.5 48"></polyline>
                            <polyline id="_5_Point_Star_1_拷贝_3" points="156.6 48.6 159.7638 54.2562 166.2 55.4754 161.7204 60.1902 162.5322 66.6 156.6 63.8568 150.6672 66.6 151.4808 60.1908 147 55.4754 153.435 54.2568 156.6 48.6"></polyline>
                        </g>
                        <g id="组_8" transform="translate(13.200000, 54.000000)">
                            <polygon id="矩形_6" fill="#F96462" points="118.08 16.599 153.0066 28.2444 137.2518 37.8246 144.0966 54.9396 109.1706 43.2942"></polygon>
                            <polygon id="矩形_6_拷贝" fill="#F96462" points="35.547 16.7682 0.5934 28.44 16.3602 38.04 9.5106 55.1928 44.4636 43.5216"></polygon>
                            <g id="组_7" transform="translate(21.000000, 0.000000)">
                                <path d="M4.1004,5.5278 C4.1004,5.5278 32.34,0 59.1102,0 C83.2302,0 106.1628,5.5278 106.1628,5.5278 C108.3306,5.5278 110.0886,6.8778 110.0886,8.5428 L110.0886,39.1968 C110.0886,40.8618 108.3306,42.2118 106.1628,42.2118 C106.1628,42.2118 82.2228,36.684 57.5292,36.684 C31.2402,36.684 4.1004,42.2118 4.1004,42.2118 C1.9326,42.2118 0.1752,40.8618 0.1752,39.1968 L0.1752,8.5428 C0.1752,6.8778 1.9326,5.5278 4.1004,5.5278 Z" id="矩形_5" fill="#F96462"></path>
                                <text id="每日任务" font-family="PingFangSC-Medium, PingFang SC" font-size="15" font-weight="400" fill="#FFFFFF">
                                    <tspan x="25.8" y="25">每日任务</tspan>
                                </text>
                            </g>
                        </g>
                    </g>
                </g>
            </g>
        </g>
    </g>
</svg>